<svg width="512" height="364" viewBox="0 0 512 364" fill="none" xmlns="http://www.w3.org/2000/svg">
<path d="M11.6416 352.187C11.6416 350.789 12.7825 349.671 14.1795 349.671H498.635C500.032 349.671 501.15 350.789 501.15 352.187V353.212C501.15 354.609 500.032 355.728 498.635 355.728H14.1795C12.7825 355.728 11.6416 354.609 11.6416 353.212V352.187Z" fill="#392054"/>
<path d="M196.93 264.484H236.931V281.419H196.93V264.484Z" fill="#EE7980"/>
<path d="M236.931 264.484H276.955V281.419H236.931V264.484Z" fill="#F4ACB0"/>
<path d="M276.955 264.484H316.956V281.419H276.955V264.484Z" fill="#EADCFF"/>
<path fill-rule="evenodd" clip-rule="evenodd" d="M196.604 263.971H317.259V281.908H196.604V263.971ZM197.233 280.906H316.63V264.973H197.233V280.906Z" fill="#CF595F"/>
<path d="M203.054 298.354H243.054V315.289H203.054V298.354Z" fill="#EE7980"/>
<path d="M243.055 298.354H283.079V315.289H243.055V298.354Z" fill="#F4ACB0"/>
<path d="M283.079 298.354H323.079V315.289H283.079V298.354Z" fill="#EADCFF"/>
<path fill-rule="evenodd" clip-rule="evenodd" d="M202.751 297.865H323.405V315.778H202.751V297.865ZM203.38 314.823H322.776V298.866H203.38V314.823Z" fill="#CF595F"/>
<path d="M196.93 315.289H236.931V332.224H196.93V315.289Z" fill="#EE7980"/>
<path d="M236.931 315.289H276.955V332.224H236.931V315.289Z" fill="#F4ACB0"/>
<path d="M276.955 315.289H316.956V332.224H276.955V315.289Z" fill="#EADCFF"/>
<path fill-rule="evenodd" clip-rule="evenodd" d="M196.604 314.799H317.259V332.736H196.604V314.799ZM197.233 331.734H316.63V315.778H197.233V331.734Z" fill="#CF595F"/>
<path d="M187.268 332.224H227.268V349.159H187.268V332.224Z" fill="#EE7980"/>
<path d="M227.269 332.224H267.293V349.159H227.269V332.224Z" fill="#F4ACB0"/>
<path d="M267.292 332.224H307.293V349.159H267.292V332.224Z" fill="#EADCFF"/>
<path fill-rule="evenodd" clip-rule="evenodd" d="M186.965 331.734H307.619V349.671H186.965V331.734ZM187.593 348.669H306.99V332.736H187.593V348.669Z" fill="#CF595F"/>
<path d="M190.341 281.419H230.342V298.354H190.341V281.419Z" fill="#EE7980"/>
<path d="M230.342 281.419H270.343V298.354H230.342V281.419Z" fill="#F4ACB0"/>
<path d="M270.342 281.419H310.366V298.354H270.342V281.419Z" fill="#EADCFF"/>
<path fill-rule="evenodd" clip-rule="evenodd" d="M190.015 280.906H310.669V298.843H190.015V280.906ZM190.644 297.841H310.041V281.908H190.644V297.841Z" fill="#CF595F"/>
<path d="M203.054 247.525H243.054V264.46H203.054V247.525Z" fill="#EE7980"/>
<path d="M243.055 247.525H283.079V264.46H243.055V247.525Z" fill="#F4ACB0"/>
<path d="M283.079 247.525H323.079V264.46H283.079V247.525Z" fill="#EADCFF"/>
<path fill-rule="evenodd" clip-rule="evenodd" d="M202.751 247.036H323.405V264.973H202.751V247.036ZM203.38 263.971H322.776V248.038H203.38V263.971Z" fill="#CF595F"/>
<path d="M190.341 230.59H230.342V247.525H190.341V230.59Z" fill="#EE7980"/>
<path d="M230.342 230.59H270.343V247.525H230.342V230.59Z" fill="#F4ACB0"/>
<path d="M270.342 230.59H310.366V247.525H270.342V230.59Z" fill="#EADCFF"/>
<path fill-rule="evenodd" clip-rule="evenodd" d="M190.015 230.101H310.669V248.038H190.015V230.101ZM190.644 247.036H310.041V231.08H190.644V247.036Z" fill="#CF595F"/>
<path d="M209.038 145.869H249.038V162.804H209.038V145.869Z" fill="#EE7980"/>
<path d="M249.038 145.869H289.062V162.804H249.038V145.869Z" fill="#F4ACB0"/>
<path d="M289.062 145.869H329.063V162.804H289.062V145.869Z" fill="#EADCFF"/>
<path fill-rule="evenodd" clip-rule="evenodd" d="M208.735 145.357H329.389V163.293H208.735V145.357ZM209.34 162.292H328.76V146.358H209.34V162.292Z" fill="#CF595F"/>
<path d="M215.161 179.739H255.185V196.674H215.161V179.739Z" fill="#EE7980"/>
<path d="M255.185 179.739H295.186V196.674H255.185V179.739Z" fill="#F4ACB0"/>
<path d="M295.186 179.739H335.187V196.674H295.186V179.739Z" fill="#EADCFF"/>
<path fill-rule="evenodd" clip-rule="evenodd" d="M214.858 179.25H335.513V197.186H214.858V179.25ZM215.487 196.185H334.884V180.228H215.487V196.185Z" fill="#CF595F"/>
<path d="M209.038 196.674H249.038V213.609H209.038V196.674Z" fill="#EE7980"/>
<path d="M249.038 196.674H289.062V213.609H249.038V196.674Z" fill="#F4ACB0"/>
<path d="M289.062 196.674H329.063V213.609H289.062V196.674Z" fill="#EADCFF"/>
<path fill-rule="evenodd" clip-rule="evenodd" d="M208.735 196.185H329.389V214.121H208.735V196.185ZM209.34 213.12H328.76V197.163H209.34V213.12Z" fill="#CF595F"/>
<path d="M199.375 213.609H239.399V230.544H199.375V213.609Z" fill="#EE7980"/>
<path d="M239.399 213.609H279.4V230.544H239.399V213.609Z" fill="#F4ACB0"/>
<path d="M279.4 213.609H319.401V230.544H279.4V213.609Z" fill="#EADCFF"/>
<path fill-rule="evenodd" clip-rule="evenodd" d="M199.072 213.12H319.726V231.056H199.072V213.12ZM199.701 230.055H319.098V214.121H199.701V230.055Z" fill="#CF595F"/>
<path d="M202.448 162.804H242.449V179.739H202.448V162.804Z" fill="#EE7980"/>
<path d="M242.449 162.804H282.473V179.739H242.449V162.804Z" fill="#F4ACB0"/>
<path d="M282.473 162.804H322.474V179.739H282.473V162.804Z" fill="#EADCFF"/>
<path fill-rule="evenodd" clip-rule="evenodd" d="M202.123 162.315H322.777V180.228H202.123V162.315ZM202.751 179.273H322.148V163.316H202.751V179.273Z" fill="#CF595F"/>
<path d="M215.161 128.911H255.185V145.869H215.161V128.911Z" fill="#EE7980"/>
<path d="M255.185 128.911H295.186V145.869H255.185V128.911Z" fill="#F4ACB0"/>
<path d="M295.186 128.911H335.187V145.869H295.186V128.911Z" fill="#EADCFF"/>
<path fill-rule="evenodd" clip-rule="evenodd" d="M214.858 128.422H335.513V146.358H214.858V128.422ZM215.487 145.357H334.884V129.423H215.487V145.357Z" fill="#CF595F"/>
<path d="M202.448 111.976H242.449V128.911H202.448V111.976Z" fill="#EE7980"/>
<path d="M242.449 111.976H282.473V128.911H242.449V111.976Z" fill="#F4ACB0"/>
<path d="M282.473 111.976H322.474V128.911H282.473V111.976Z" fill="#EADCFF"/>
<path fill-rule="evenodd" clip-rule="evenodd" d="M202.123 111.487H322.777V129.423H202.123V111.487ZM202.751 128.422H322.148V112.488H202.751V128.422Z" fill="#CF595F"/>
<g style="mix-blend-mode:multiply">
<path d="M329.389 163.293V146.358H335.512V128.422H322.777V111.487H202.122V129.423H214.858V145.357H208.735V162.315H202.122V180.228H214.858V196.185H208.735V213.12H199.072V231.056H202.122V248.038H214.858V263.971H208.735V280.906H202.122V298.843H214.858V314.799H208.735V331.734H199.072V349.671H319.726V332.736H329.389V315.778H335.512V297.864H322.777V281.908H329.389V264.973H335.512V247.036H322.777V230.101H319.726V214.121H329.389V197.186H335.512V179.25H322.777V163.293H329.389Z" fill="#EECDCF"/>
</g>
<path d="M352.649 264.484H392.65V281.419H352.649V264.484Z" fill="#EE7980"/>
<path d="M392.65 264.484H432.651V281.419H392.65V264.484Z" fill="#F4ACB0"/>
<path d="M432.65 264.484H472.674V281.419H432.65V264.484Z" fill="#EADCFF"/>
<path fill-rule="evenodd" clip-rule="evenodd" d="M352.323 263.971H472.977V281.908H352.323V263.971ZM352.952 280.906H472.349V264.973H352.952V280.906Z" fill="#CF595F"/>
<path d="M358.772 298.354H398.773V315.289H358.772V298.354Z" fill="#EE7980"/>
<path d="M398.773 298.354H438.797V315.289H398.773V298.354Z" fill="#F4ACB0"/>
<path d="M438.797 298.354H478.798V315.289H438.797V298.354Z" fill="#EADCFF"/>
<path fill-rule="evenodd" clip-rule="evenodd" d="M358.47 297.865H479.124V315.778H358.47V297.865ZM359.075 314.823H478.495V298.866H359.075V314.823Z" fill="#CF595F"/>
<path d="M352.649 315.289H392.65V332.224H352.649V315.289Z" fill="#EE7980"/>
<path d="M392.65 315.289H432.651V332.224H392.65V315.289Z" fill="#F4ACB0"/>
<path d="M432.65 315.289H472.674V332.224H432.65V315.289Z" fill="#EADCFF"/>
<path fill-rule="evenodd" clip-rule="evenodd" d="M352.323 314.799H472.977V332.736H352.323V314.799ZM352.952 331.734H472.349V315.778H352.952V331.734Z" fill="#CF595F"/>
<path d="M342.986 332.224H382.987V349.159H342.986V332.224Z" fill="#EE7980"/>
<path d="M382.987 332.224H423.011V349.159H382.987V332.224Z" fill="#F4ACB0"/>
<path d="M423.011 332.224H463.012V349.159H423.011V332.224Z" fill="#EADCFF"/>
<path fill-rule="evenodd" clip-rule="evenodd" d="M342.661 331.734H463.338V349.671H342.661V331.734ZM343.289 348.669H462.709V332.736H343.289V348.669Z" fill="#CF595F"/>
<path d="M346.06 281.419H386.061V298.354H346.06V281.419Z" fill="#EE7980"/>
<path d="M386.061 281.419H426.061V298.354H386.061V281.419Z" fill="#F4ACB0"/>
<path d="M426.062 281.419H466.086V298.354H426.062V281.419Z" fill="#EADCFF"/>
<path fill-rule="evenodd" clip-rule="evenodd" d="M345.734 280.906H466.388V298.843H345.734V280.906ZM346.363 297.841H465.759V281.908H346.363V297.841Z" fill="#CF595F"/>
<path d="M358.772 247.525H398.773V264.46H358.772V247.525Z" fill="#EE7980"/>
<path d="M398.773 247.525H438.797V264.46H398.773V247.525Z" fill="#F4ACB0"/>
<path d="M438.797 247.525H478.798V264.46H438.797V247.525Z" fill="#EADCFF"/>
<path fill-rule="evenodd" clip-rule="evenodd" d="M358.47 247.036H479.124V264.973H358.47V247.036ZM359.075 263.971H478.495V248.038H359.075V263.971Z" fill="#CF595F"/>
<path d="M346.06 230.59H386.061V247.525H346.06V230.59Z" fill="#EE7980"/>
<path d="M386.061 230.59H426.061V247.525H386.061V230.59Z" fill="#F4ACB0"/>
<path d="M426.062 230.59H466.086V247.525H426.062V230.59Z" fill="#EADCFF"/>
<path fill-rule="evenodd" clip-rule="evenodd" d="M345.734 230.101H466.388V248.038H345.734V230.101ZM346.363 247.036H465.759V231.08H346.363V247.036Z" fill="#CF595F"/>
<path d="M358.772 179.739H398.773V196.674H358.772V179.739Z" fill="#EE7980"/>
<path d="M398.773 179.739H438.797V196.674H398.773V179.739Z" fill="#F4ACB0"/>
<path d="M438.797 179.739H478.798V196.674H438.797V179.739Z" fill="#EADCFF"/>
<path fill-rule="evenodd" clip-rule="evenodd" d="M358.47 179.25H479.124V197.186H358.47V179.25ZM359.075 196.185H478.495V180.228H359.075V196.185Z" fill="#CF595F"/>
<path d="M352.649 196.674H392.65V213.609H352.649V196.674Z" fill="#EE7980"/>
<path d="M392.65 196.674H432.651V213.609H392.65V196.674Z" fill="#F4ACB0"/>
<path d="M432.65 196.674H472.674V213.609H432.65V196.674Z" fill="#EADCFF"/>
<path fill-rule="evenodd" clip-rule="evenodd" d="M352.323 196.185H472.977V214.121H352.323V196.185ZM352.952 213.12H472.349V197.163H352.952V213.12Z" fill="#CF595F"/>
<path d="M342.986 213.609H382.987V230.544H342.986V213.609Z" fill="#EE7980"/>
<path d="M382.987 213.609H423.011V230.544H382.987V213.609Z" fill="#F4ACB0"/>
<path d="M423.011 213.609H463.012V230.544H423.011V213.609Z" fill="#EADCFF"/>
<path fill-rule="evenodd" clip-rule="evenodd" d="M342.661 213.12H463.338V231.056H342.661V213.12ZM343.289 230.055H462.709V214.121H343.289V230.055Z" fill="#CF595F"/>
<path d="M349.04 162.804H389.041V179.739H349.04V162.804Z" fill="#EE7980"/>
<path d="M389.041 162.804H429.042V179.739H389.041V162.804Z" fill="#F4ACB0"/>
<path d="M429.042 162.804H469.066V179.739H429.042V162.804Z" fill="#EADCFF"/>
<path fill-rule="evenodd" clip-rule="evenodd" d="M348.714 162.315H469.368V180.228H348.714V162.315ZM349.343 179.273H468.74V163.316H349.343V179.273Z" fill="#CF595F"/>
<path d="M61.3516 264.484H101.352V281.419H61.3516V264.484Z" fill="#EE7980"/>
<path d="M101.352 264.484H141.376V281.419H101.352V264.484Z" fill="#F4ACB0"/>
<path d="M141.376 264.484H181.377V281.419H141.376V264.484Z" fill="#EADCFF"/>
<path fill-rule="evenodd" clip-rule="evenodd" d="M61.0254 263.971H181.68V281.908H61.0254V263.971ZM61.654 280.906H181.051V264.973H61.654V280.906Z" fill="#CF595F"/>
<path d="M67.4751 298.354H107.476V315.289H67.4751V298.354Z" fill="#EE7980"/>
<path d="M107.476 298.354H147.5V315.289H107.476V298.354Z" fill="#F4ACB0"/>
<path d="M147.5 298.354H187.501V315.289H147.5V298.354Z" fill="#EADCFF"/>
<path fill-rule="evenodd" clip-rule="evenodd" d="M67.1724 297.865H187.826V315.778H67.1724V297.865ZM67.801 314.823H187.198V298.866H67.801V314.823Z" fill="#CF595F"/>
<path d="M61.3516 315.289H101.352V332.224H61.3516V315.289Z" fill="#EE7980"/>
<path d="M101.352 315.289H141.376V332.224H101.352V315.289Z" fill="#F4ACB0"/>
<path d="M141.376 315.289H181.377V332.224H141.376V315.289Z" fill="#EADCFF"/>
<path fill-rule="evenodd" clip-rule="evenodd" d="M61.0254 314.799H181.68V332.736H61.0254V314.799ZM61.654 331.734H181.051V315.778H61.654V331.734Z" fill="#CF595F"/>
<path d="M51.689 332.224H91.6897V349.159H51.689V332.224Z" fill="#EE7980"/>
<path d="M91.6895 332.224H131.713V349.159H91.6895V332.224Z" fill="#F4ACB0"/>
<path d="M131.714 332.224H171.715V349.159H131.714V332.224Z" fill="#EADCFF"/>
<path fill-rule="evenodd" clip-rule="evenodd" d="M51.3862 331.734H172.04V349.671H51.3862V331.734ZM51.9916 348.669H171.412V332.736H51.9916V348.669Z" fill="#CF595F"/>
<path d="M54.7622 281.419H94.7629V298.354H54.7622V281.419Z" fill="#EE7980"/>
<path d="M94.7632 281.419H134.764V298.354H94.7632V281.419Z" fill="#F4ACB0"/>
<path d="M134.764 281.419H174.788V298.354H134.764V281.419Z" fill="#EADCFF"/>
<path fill-rule="evenodd" clip-rule="evenodd" d="M54.4365 280.906H175.091V298.843H54.4365V280.906ZM55.0652 297.841H174.462V281.908H55.0652V297.841Z" fill="#CF595F"/>
<path d="M67.4751 247.525H107.476V264.46H67.4751V247.525Z" fill="#EE7980"/>
<path d="M107.476 247.525H147.5V264.46H107.476V247.525Z" fill="#F4ACB0"/>
<path d="M147.5 247.525H187.501V264.46H147.5V247.525Z" fill="#EADCFF"/>
<path fill-rule="evenodd" clip-rule="evenodd" d="M67.1724 247.036H187.826V264.973H67.1724V247.036ZM67.801 263.971H187.198V248.038H67.801V263.971Z" fill="#CF595F"/>
<path d="M54.7622 230.59H94.7629V247.525H54.7622V230.59Z" fill="#EE7980"/>
<path d="M94.7632 230.59H134.764V247.525H94.7632V230.59Z" fill="#F4ACB0"/>
<path d="M134.764 230.59H174.788V247.525H134.764V230.59Z" fill="#EADCFF"/>
<path fill-rule="evenodd" clip-rule="evenodd" d="M54.4365 230.101H175.091V248.038H54.4365V230.101ZM55.0652 247.036H174.462V231.08H55.0652V247.036Z" fill="#CF595F"/>
<path d="M61.3516 145.869H101.352V162.804H61.3516V145.869Z" fill="#EE7980"/>
<path d="M101.352 145.869H141.376V162.804H101.352V145.869Z" fill="#F4ACB0"/>
<path d="M141.376 145.869H181.377V162.804H141.376V145.869Z" fill="#EADCFF"/>
<path fill-rule="evenodd" clip-rule="evenodd" d="M61.0254 145.357H181.68V163.293H61.0254V145.357ZM61.654 162.292H181.051V146.358H61.654V162.292Z" fill="#CF595F"/>
<path d="M67.4751 179.739H107.476V196.674H67.4751V179.739Z" fill="#EE7980"/>
<path d="M107.476 179.739H147.5V196.674H107.476V179.739Z" fill="#F4ACB0"/>
<path d="M147.5 179.739H187.501V196.674H147.5V179.739Z" fill="#EADCFF"/>
<path fill-rule="evenodd" clip-rule="evenodd" d="M67.1724 179.25H187.826V197.186H67.1724V179.25ZM67.801 196.185H187.198V180.228H67.801V196.185Z" fill="#CF595F"/>
<path d="M61.3516 196.674H101.352V213.609H61.3516V196.674Z" fill="#EE7980"/>
<path d="M101.352 196.674H141.376V213.609H101.352V196.674Z" fill="#F4ACB0"/>
<path d="M141.376 196.674H181.377V213.609H141.376V196.674Z" fill="#EADCFF"/>
<path fill-rule="evenodd" clip-rule="evenodd" d="M61.0254 196.185H181.68V214.121H61.0254V196.185ZM61.654 213.12H181.051V197.163H61.654V213.12Z" fill="#CF595F"/>
<path d="M51.689 213.609H91.6897V230.544H51.689V213.609Z" fill="#EE7980"/>
<path d="M91.6895 213.609H131.713V230.544H91.6895V213.609Z" fill="#F4ACB0"/>
<path d="M131.714 213.609H171.715V230.544H131.714V213.609Z" fill="#EADCFF"/>
<path fill-rule="evenodd" clip-rule="evenodd" d="M51.3862 213.12H172.04V231.056H51.3862V213.12ZM51.9916 230.055H171.412V214.121H51.9916V230.055Z" fill="#CF595F"/>
<path d="M54.7622 162.804H94.7629V179.739H54.7622V162.804Z" fill="#EE7980"/>
<path d="M94.7632 162.804H134.764V179.739H94.7632V162.804Z" fill="#F4ACB0"/>
<path d="M134.764 162.804H174.788V179.739H134.764V162.804Z" fill="#EADCFF"/>
<path fill-rule="evenodd" clip-rule="evenodd" d="M54.4365 162.315H175.091V180.228H54.4365V162.315ZM55.0652 179.273H174.462V163.316H55.0652V179.273Z" fill="#CF595F"/>
<path d="M67.4751 128.911H107.476V145.869H67.4751V128.911Z" fill="#EE7980"/>
<path d="M107.476 128.911H147.5V145.869H107.476V128.911Z" fill="#F4ACB0"/>
<path d="M147.5 128.911H187.501V145.869H147.5V128.911Z" fill="#EADCFF"/>
<path fill-rule="evenodd" clip-rule="evenodd" d="M67.1724 128.422H187.826V146.358H67.1724V128.422ZM67.801 145.357H187.198V129.423H67.801V145.357Z" fill="#CF595F"/>
<path d="M54.7622 111.976H94.7629V128.911H54.7622V111.976Z" fill="#EE7980"/>
<path d="M94.7632 111.976H134.764V128.911H94.7632V111.976Z" fill="#F4ACB0"/>
<path d="M134.764 111.976H174.788V128.911H134.764V111.976Z" fill="#EADCFF"/>
<path fill-rule="evenodd" clip-rule="evenodd" d="M54.4365 111.487H175.091V129.423H54.4365V111.487ZM55.0652 128.422H174.462V112.488H55.0652V128.422Z" fill="#CF595F"/>
<path d="M61.3516 27.2777H101.352V44.2127H61.3516V27.2777Z" fill="#EE7980"/>
<path d="M101.352 27.2777H141.376V44.2127H101.352V27.2777Z" fill="#F4ACB0"/>
<path d="M141.376 27.2777H181.377V44.2127H141.376V27.2777Z" fill="#EADCFF"/>
<path fill-rule="evenodd" clip-rule="evenodd" d="M61.0254 26.7885H181.68V44.7251H61.0254V26.7885ZM61.654 43.7234H181.051V27.7901H61.654V43.7234Z" fill="#CF595F"/>
<path d="M67.4751 61.1709H107.476V78.1059H67.4751V61.1709Z" fill="#EE7980"/>
<path d="M107.476 61.1709H147.5V78.1059H107.476V61.1709Z" fill="#F4ACB0"/>
<path d="M147.5 61.1709H187.501V78.1059H147.5V61.1709Z" fill="#EADCFF"/>
<path fill-rule="evenodd" clip-rule="evenodd" d="M67.1724 60.6584H187.826V78.5951H67.1724V60.6584ZM67.801 77.5934H187.198V61.6601H67.801V77.5934Z" fill="#CF595F"/>
<path d="M61.3516 78.1058H101.352V95.0408H61.3516V78.1058Z" fill="#EE7980"/>
<path d="M101.352 78.1058H141.376V95.0408H101.352V78.1058Z" fill="#F4ACB0"/>
<path d="M141.376 78.1058H181.377V95.0408H141.376V78.1058Z" fill="#EADCFF"/>
<path fill-rule="evenodd" clip-rule="evenodd" d="M61.0254 77.5934H181.68V95.53H61.0254V77.5934ZM61.654 94.5284H181.051V78.595H61.654V94.5284Z" fill="#CF595F"/>
<path d="M51.689 95.0408H91.6897V111.976H51.689V95.0408Z" fill="#EE7980"/>
<path d="M91.6895 95.0408H131.713V111.976H91.6895V95.0408Z" fill="#F4ACB0"/>
<path d="M131.714 95.0408H171.715V111.976H131.714V95.0408Z" fill="#EADCFF"/>
<path fill-rule="evenodd" clip-rule="evenodd" d="M51.3862 94.5516H172.04V112.465H51.3862V94.5516ZM51.9916 111.51H171.412V95.5533H51.9916V111.51Z" fill="#CF595F"/>
<path d="M54.7622 44.236H94.7629V61.1709H54.7622V44.236Z" fill="#EE7980"/>
<path d="M94.7632 44.236H134.764V61.1709H94.7632V44.236Z" fill="#F4ACB0"/>
<path d="M134.764 44.236H174.788V61.1709H134.764V44.236Z" fill="#EADCFF"/>
<path fill-rule="evenodd" clip-rule="evenodd" d="M54.4365 43.7234H175.091V61.66H54.4365V43.7234ZM55.0652 60.6584H174.462V44.725H55.0652V60.6584Z" fill="#CF595F"/>
<g style="mix-blend-mode:multiply">
<path d="M181.68 95.53V78.595H187.826V60.6584H175.09V44.7251H181.68V26.7885H61.0255V43.7234H54.4363V61.6601H67.1723V77.5934H61.0255V94.5516H51.3862V112.465H54.4363V129.423H67.1723V145.357H61.0255V162.315H54.4363V180.228H67.1723V196.185H61.0255V213.12H51.3862V231.056H54.4363V248.038H67.1723V263.971H61.0255V280.906H54.4363V298.843H67.1723V314.799H61.0255V331.734H51.3862V349.671H172.04V332.736H181.68V315.778H187.826V297.864H175.09V281.908H181.68V264.973H187.826V247.036H175.09V230.101H172.04V214.121H181.68V197.186H187.826V179.25H175.09V163.293H181.68V146.358H187.826V128.422H175.09V111.487H172.04V95.53H181.68Z" fill="#EECDCF"/>
</g>
<path d="M93.459 264.484H133.483V281.419H93.459V264.484Z" fill="#726186"/>
<path d="M133.483 264.484H173.484V281.419H133.483V264.484Z" fill="#887998"/>
<path d="M173.484 264.484H213.485V281.419H173.484V264.484Z" fill="#9E92AB"/>
<path fill-rule="evenodd" clip-rule="evenodd" d="M93.1567 263.971H213.811V281.908H93.1567V263.971ZM93.7854 280.906H213.182V264.973H93.7854V280.906Z" fill="#392054"/>
<path d="M99.5825 298.354H139.607V315.289H99.5825V298.354Z" fill="#726186"/>
<path d="M139.607 298.354H179.608V315.289H139.607V298.354Z" fill="#887998"/>
<path d="M179.607 298.354H219.631V315.289H179.607V298.354Z" fill="#9E92AB"/>
<path fill-rule="evenodd" clip-rule="evenodd" d="M99.2803 297.865H219.934V315.778H99.2803V297.865ZM99.9089 314.823H219.306V298.866H99.9089V314.823Z" fill="#392054"/>
<path d="M93.459 315.289H133.483V332.224H93.459V315.289Z" fill="#726186"/>
<path d="M133.483 315.289H173.484V332.224H133.483V315.289Z" fill="#887998"/>
<path d="M173.484 315.289H213.485V332.224H173.484V315.289Z" fill="#9E92AB"/>
<path fill-rule="evenodd" clip-rule="evenodd" d="M93.1567 314.799H213.811V332.736H93.1567V314.799ZM93.7854 331.734H213.182V315.778H93.7854V331.734Z" fill="#392054"/>
<path d="M83.7969 332.224H123.821V349.159H83.7969V332.224Z" fill="#726186"/>
<path d="M123.821 332.224H163.822V349.159H123.821V332.224Z" fill="#887998"/>
<path d="M163.821 332.224H203.822V349.159H163.821V332.224Z" fill="#9E92AB"/>
<path fill-rule="evenodd" clip-rule="evenodd" d="M83.4941 331.734H204.148V349.671H83.4941V331.734ZM84.1228 348.669H203.52V332.736H84.1228V348.669Z" fill="#392054"/>
<path d="M86.8701 281.419H126.871V298.354H86.8701V281.419Z" fill="#726186"/>
<path d="M126.871 281.419H166.895V298.354H126.871V281.419Z" fill="#887998"/>
<path d="M166.895 281.419H206.895V298.354H166.895V281.419Z" fill="#9E92AB"/>
<path fill-rule="evenodd" clip-rule="evenodd" d="M86.5674 280.906H207.221V298.843H86.5674V280.906ZM87.1728 297.841H206.593V281.908H87.1728V297.841Z" fill="#392054"/>
<path d="M99.5825 247.525H139.607V264.46H99.5825V247.525Z" fill="#726186"/>
<path d="M139.607 247.525H179.608V264.46H139.607V247.525Z" fill="#887998"/>
<path d="M179.607 247.525H219.631V264.46H179.607V247.525Z" fill="#9E92AB"/>
<path fill-rule="evenodd" clip-rule="evenodd" d="M99.2803 247.036H219.934V264.973H99.2803V247.036ZM99.9089 263.971H219.306V248.038H99.9089V263.971Z" fill="#392054"/>
<path d="M86.8701 230.59H126.871V247.525H86.8701V230.59Z" fill="#726186"/>
<path d="M126.871 230.59H166.895V247.525H126.871V230.59Z" fill="#887998"/>
<path d="M166.895 230.59H206.895V247.525H166.895V230.59Z" fill="#9E92AB"/>
<path fill-rule="evenodd" clip-rule="evenodd" d="M86.5674 230.101H207.221V248.038H86.5674V230.101ZM87.1728 247.036H206.593V231.08H87.1728V247.036Z" fill="#392054"/>
<path d="M93.459 145.869H133.483V162.804H93.459V145.869Z" fill="#726186"/>
<path d="M133.483 145.869H173.484V162.804H133.483V145.869Z" fill="#887998"/>
<path d="M173.484 145.869H213.485V162.804H173.484V145.869Z" fill="#9E92AB"/>
<path fill-rule="evenodd" clip-rule="evenodd" d="M93.1567 145.357H213.811V163.293H93.1567V145.357ZM93.7854 162.292H213.182V146.358H93.7854V162.292Z" fill="#392054"/>
<path d="M99.5825 179.739H139.607V196.674H99.5825V179.739Z" fill="#726186"/>
<path d="M139.607 179.739H179.608V196.674H139.607V179.739Z" fill="#887998"/>
<path d="M179.607 179.739H219.631V196.674H179.607V179.739Z" fill="#9E92AB"/>
<path fill-rule="evenodd" clip-rule="evenodd" d="M99.2803 179.25H219.934V197.186H99.2803V179.25ZM99.9089 196.185H219.306V180.228H99.9089V196.185Z" fill="#392054"/>
<path d="M93.459 196.674H133.483V213.609H93.459V196.674Z" fill="#726186"/>
<path d="M133.483 196.674H173.484V213.609H133.483V196.674Z" fill="#887998"/>
<path d="M173.484 196.674H213.485V213.609H173.484V196.674Z" fill="#9E92AB"/>
<path fill-rule="evenodd" clip-rule="evenodd" d="M93.1567 196.185H213.811V214.121H93.1567V196.185ZM93.7854 213.12H213.182V197.163H93.7854V213.12Z" fill="#392054"/>
<path d="M83.7969 213.609H123.821V230.544H83.7969V213.609Z" fill="#726186"/>
<path d="M123.821 213.609H163.822V230.544H123.821V213.609Z" fill="#887998"/>
<path d="M163.821 213.609H203.822V230.544H163.821V213.609Z" fill="#9E92AB"/>
<path fill-rule="evenodd" clip-rule="evenodd" d="M83.4941 213.12H204.148V231.056H83.4941V213.12ZM84.1228 230.055H203.52V214.121H84.1228V230.055Z" fill="#392054"/>
<path d="M86.8701 162.804H126.871V179.739H86.8701V162.804Z" fill="#726186"/>
<path d="M126.871 162.804H166.895V179.739H126.871V162.804Z" fill="#887998"/>
<path d="M166.895 162.804H206.895V179.739H166.895V162.804Z" fill="#9E92AB"/>
<path fill-rule="evenodd" clip-rule="evenodd" d="M86.5674 162.315H207.221V180.228H86.5674V162.315ZM87.1728 179.273H206.593V163.316H87.1728V179.273Z" fill="#392054"/>
<path d="M253.439 264.484H293.44V281.419H253.439V264.484Z" fill="#31DAE7"/>
<path d="M293.439 264.484H333.463V281.419H293.439V264.484Z" fill="#52E0EB"/>
<path d="M333.463 264.484H373.464V281.419H333.463V264.484Z" fill="#71E5EE"/>
<path fill-rule="evenodd" clip-rule="evenodd" d="M253.113 263.971H373.767V281.908H253.113V263.971ZM253.741 280.906H373.138V264.973H253.741V280.906Z" fill="#1D8188"/>
<path d="M259.562 298.354H299.563V315.289H259.562V298.354Z" fill="#31DAE7"/>
<path d="M299.563 298.354H339.587V315.289H299.563V298.354Z" fill="#52E0EB"/>
<path d="M339.587 298.354H379.588V315.289H339.587V298.354Z" fill="#71E5EE"/>
<path fill-rule="evenodd" clip-rule="evenodd" d="M259.26 297.865H379.914V315.778H259.26V297.865ZM259.865 314.823H379.285V298.866H259.865V314.823Z" fill="#1D8188"/>
<path d="M253.439 315.289H293.44V332.224H253.439V315.289Z" fill="#31DAE7"/>
<path d="M293.439 315.289H333.463V332.224H293.439V315.289Z" fill="#52E0EB"/>
<path d="M333.463 315.289H373.464V332.224H333.463V315.289Z" fill="#71E5EE"/>
<path fill-rule="evenodd" clip-rule="evenodd" d="M253.113 314.799H373.767V332.736H253.113V314.799ZM253.741 331.734H373.138V315.778H253.741V331.734Z" fill="#1D8188"/>
<path d="M243.776 332.224H283.777V349.159H243.776V332.224Z" fill="#31DAE7"/>
<path d="M283.777 332.224H323.801V349.159H283.777V332.224Z" fill="#52E0EB"/>
<path d="M323.801 332.224H363.802V349.159H323.801V332.224Z" fill="#71E5EE"/>
<path fill-rule="evenodd" clip-rule="evenodd" d="M243.474 331.734H364.128V349.671H243.474V331.734ZM244.079 348.669H363.499V332.736H244.079V348.669Z" fill="#1D8188"/>
<path d="M246.85 281.419H286.85V298.354H246.85V281.419Z" fill="#31DAE7"/>
<path d="M286.851 281.419H326.851V298.354H286.851V281.419Z" fill="#52E0EB"/>
<path d="M326.851 281.419H366.875V298.354H326.851V281.419Z" fill="#71E5EE"/>
<path fill-rule="evenodd" clip-rule="evenodd" d="M246.524 280.906H367.178V298.843H246.524V280.906ZM247.153 297.841H366.549V281.908H247.153V297.841Z" fill="#1D8188"/>
<path d="M259.562 247.525H299.563V264.46H259.562V247.525Z" fill="#31DAE7"/>
<path d="M299.563 247.525H339.587V264.46H299.563V247.525Z" fill="#52E0EB"/>
<path d="M339.587 247.525H379.588V264.46H339.587V247.525Z" fill="#71E5EE"/>
<path fill-rule="evenodd" clip-rule="evenodd" d="M259.26 247.036H379.914V264.973H259.26V247.036ZM259.865 263.971H379.285V248.038H259.865V263.971Z" fill="#1D8188"/>
<path d="M246.85 230.59H286.85V247.525H246.85V230.59Z" fill="#31DAE7"/>
<path d="M286.851 230.59H326.851V247.525H286.851V230.59Z" fill="#52E0EB"/>
<path d="M326.851 230.59H366.875V247.525H326.851V230.59Z" fill="#71E5EE"/>
<path fill-rule="evenodd" clip-rule="evenodd" d="M246.524 230.101H367.178V248.038H246.524V230.101ZM247.153 247.036H366.549V231.08H247.153V247.036Z" fill="#1D8188"/>
<path d="M197.815 110.601C199.398 125.417 196.721 128.492 196.721 128.492C218.677 129.004 226.942 126.022 226.942 126.022C225.545 110.695 223.45 107.154 223.45 107.154C204.171 110.136 197.815 110.601 197.815 110.601Z" fill="#31DAE7"/>
<path d="M226.43 340.61V348.483C226.43 349.135 226.942 349.671 227.594 349.671H246.081C247.408 349.671 247.921 347.924 246.803 347.202L236.675 340.61C236.675 340.61 232.367 343.568 226.43 340.61Z" fill="#392054"/>
<path d="M185.684 340.61V348.483C185.684 349.135 185.149 349.671 184.52 349.671H166.033C164.706 349.671 164.194 347.924 165.311 347.202L175.44 340.61C175.44 340.61 179.747 343.568 185.684 340.61Z" fill="#392054"/>
<path d="M289.388 136.295C289.388 136.295 287.432 138.019 287.432 138.857C287.432 139.696 285.756 147.57 285.756 151.11C285.756 154.651 295.931 157.4 295.931 157.4L298.538 151.134C298.538 151.134 297.141 139.277 296.955 139.277C296.792 139.277 289.388 136.295 289.388 136.295Z" fill="#F2AAB8"/>
<path d="M243.381 202.404C233.765 214.285 217.094 230.521 217.094 230.521L226.43 342.823C226.43 342.823 235.627 344.43 240.028 341.635C240.028 341.635 244.009 235.739 243.381 202.404Z" fill="#553F6C"/>
<path d="M242.263 205.922C242.24 204.245 245.988 209.206 245.918 207.879C244.428 179.925 197.815 203.359 197.815 203.359L186.43 213.143L171.528 342.613C171.528 342.613 179.026 345.758 185.731 343.638L217.094 231.942C217.094 231.942 227.362 228.308 242.263 205.922Z" fill="#553F6C"/>
<path d="M204.451 114.142L204.404 127.024L216.931 125.091L214.835 110.601L204.451 114.142Z" fill="#F2AAB8"/>
<path d="M215.813 117.264L214.835 110.601L204.451 115.353L204.427 117.893C206.942 118.522 211.622 119.057 215.813 117.264Z" fill="#EE93A5"/>
<path d="M222.425 87.8429L223.194 96.6715L221.797 97.5567L219.212 86.7947L222.425 87.8429Z" fill="#392054"/>
<path d="M220.54 95.7629C220.167 97.7662 221.145 99.6531 222.751 99.9559C224.358 100.259 225.965 98.8843 226.36 96.881C226.733 94.8777 225.755 93.0142 224.148 92.6881C222.542 92.3852 220.935 93.7596 220.54 95.7629Z" fill="#CA7D8C"/>
<path d="M222.192 106.711C222.487 105.811 222.705 104.887 222.844 103.939C223.263 101.377 223.194 98.768 222.961 96.5084C222.914 96.0425 222.891 95.5534 222.891 95.0642C222.844 93.1075 222.425 91.1041 221.564 89.1241C218.816 82.7648 212.064 78.9212 205.196 79.7831C195.929 80.9245 189.829 89.6366 191.598 98.535C190.527 98.1856 189.41 98.2788 188.548 98.9077C186.872 100.096 186.709 102.751 188.199 104.848C189.689 106.921 192.25 107.666 193.927 106.478C194.159 106.308 194.361 106.113 194.532 105.896C196.814 113.327 204.218 117.916 211.645 116.309C215.277 115.517 218.281 113.374 220.283 110.508C220.423 110.337 220.563 110.136 220.702 109.903C221.331 108.924 221.82 107.829 222.192 106.711Z" fill="#F2AAB8"/>
<path d="M205.778 97.0908C205.941 97.8362 205.475 98.5816 204.73 98.7447C203.985 98.9077 203.24 98.4185 203.077 97.6731C202.914 96.951 203.403 96.2056 204.148 96.0425C204.893 95.8795 205.615 96.3453 205.778 97.0908Z" fill="#553F6C"/>
<path d="M217.513 95.3437C217.676 96.0891 217.21 96.8112 216.465 96.9743C215.72 97.1374 214.975 96.6715 214.812 95.9261C214.672 95.1806 215.138 94.4585 215.883 94.2955C216.628 94.1324 217.35 94.5983 217.513 95.3437Z" fill="#553F6C"/>
<path d="M206.826 94.0858C206.104 93.946 205.429 93.8761 204.777 93.8528C204.109 93.8373 203.465 93.915 202.844 94.0858C202.239 94.2488 201.634 94.4818 201.098 94.8545L200.865 94.971C200.795 95.0176 200.749 95.0641 200.656 95.1107L200.237 95.4136C199.957 95.5999 199.724 95.8561 199.398 96.0658C199.538 95.7164 199.701 95.3903 199.887 95.0641C200.12 94.7846 200.306 94.4585 200.609 94.2255C201.145 93.6898 201.866 93.3171 202.588 93.1074C203.333 92.9211 204.125 92.9211 204.87 93.0841C205.592 93.2472 206.29 93.5733 206.826 94.0858Z" fill="#392054"/>
<path d="M212.32 93.1772C212.67 92.525 213.205 92.0125 213.857 91.5932C214.486 91.1972 215.231 90.9643 215.999 90.9177C216.767 90.8711 217.559 90.9876 218.258 91.3137C218.607 91.4535 218.886 91.7097 219.212 91.8961C219.492 92.129 219.748 92.4085 219.981 92.6648C219.608 92.5716 219.305 92.4318 218.979 92.3386L218.467 92.1756C218.397 92.1756 218.327 92.129 218.234 92.1057L218.001 92.0591C217.349 91.8961 216.721 91.8728 216.069 91.8961C215.448 91.9426 214.819 92.0824 214.183 92.3153C213.554 92.525 212.949 92.8278 212.32 93.1772Z" fill="#392054"/>
<path d="M210.155 93.387C210.062 94.3886 210.132 95.3903 210.318 96.3686C210.411 96.8578 210.551 97.347 210.737 97.8362C210.947 98.3021 211.18 98.7912 211.622 99.2105C212.111 99.6065 212.344 99.6997 212.484 100.072C212.647 100.375 212.577 100.771 212.414 101.144C212.065 101.889 211.25 102.472 210.365 102.891C211.343 102.844 212.414 102.448 213.042 101.493C213.368 101.051 213.531 100.399 213.322 99.7696C213.112 99.1174 212.716 98.8844 212.251 98.5117C211.995 98.2555 211.762 97.8595 211.552 97.4635C211.343 97.0675 211.203 96.6249 211.04 96.1823C210.714 95.2738 210.458 94.342 210.155 93.387Z" fill="#CA7D8C"/>
<path d="M224.707 122.039H216.488C210.365 128.189 204.404 122.039 204.404 122.039H198.886C198.886 122.039 184.334 198.514 205.335 202.358C226.36 206.178 237.373 199.376 237.373 199.376V163.503L224.707 122.039Z" fill="#EADCFF"/>
<path d="M224.707 122.039C224.707 122.039 230.877 122.388 241.704 135.456C252.507 148.525 259.143 178.83 270.482 167.859C281.821 156.887 285.639 151.297 285.639 151.297C285.639 151.297 292.089 153.393 295.931 157.4C295.931 157.4 276.047 193.995 266.803 195.905C257.56 197.815 237.373 178.994 237.373 178.994L224.707 122.039Z" fill="#E1CFFA"/>
<path d="M198.886 122.039C198.886 122.039 175.882 125.696 173.787 129.097C171.691 132.498 152.226 196.185 166.359 222.577C166.359 222.577 173.717 225 180.539 222.903L164.706 333.458C164.706 333.458 187.57 340.61 224.707 337.046C224.707 337.046 211.715 145.566 198.886 122.039Z" fill="#EADCFF"/>
<path d="M224.707 122.039C224.707 122.039 212.111 178.528 208.712 196.045L206.011 338.024C206.011 338.024 243.171 338.07 247.408 336.486C247.408 336.486 246.291 217.569 245.918 207.879C244.777 179.855 243.939 126.115 224.707 122.039Z" fill="#EADCFF"/>
<path d="M203.799 214.611L203.193 212.188C202.914 211.093 201.796 210.418 200.702 210.697C199.608 210.953 198.956 212.072 199.212 213.166L201.773 223.416C202.029 224.511 203.147 225.163 204.241 224.907C205.335 224.627 206.011 223.532 205.731 222.438L205.126 220.015C205.754 219.852 206.127 219.223 205.964 218.617L205.196 215.449C205.033 214.82 204.404 214.448 203.799 214.611Z" fill="#D9D5DF"/>
<path d="M203.101 235.436L160.05 246.105C158.257 246.547 156.441 245.452 155.998 243.635L149.293 216.637C148.827 214.844 149.945 213.027 151.738 212.561L194.788 201.915C196.581 201.473 198.397 202.567 198.84 204.361L205.545 231.359C206.011 233.153 204.893 234.993 203.101 235.436Z" fill="#392054"/>
<path d="M180.399 222.927L177.302 223.719C177.302 223.719 174.834 223.882 174.741 223.858C174.648 223.858 171.994 223.765 171.994 223.765L167.663 222.973C168.292 225.769 170.76 235.739 171.109 235.715C171.505 235.715 171.924 231.08 172.366 231.219C172.809 231.382 174.276 237.625 174.671 237.206C175.067 236.787 174.415 230.87 174.788 230.893C175.137 230.917 176.487 236.95 177.279 236.74C178.094 236.507 176.394 229.938 177.116 230.031C177.815 230.101 179.375 236.88 180.073 236.554C180.655 236.298 179.095 228.68 178.583 226.258C178.513 225.955 178.839 225.699 179.118 225.815C183.705 227.586 184.171 227.469 184.241 226.933C184.287 226.677 182.495 224.93 180.399 222.927Z" fill="#F2AAB8"/>
<path d="M161.889 207.017C161.889 207.017 163.914 220.76 166.359 222.577C166.359 222.577 173.88 224.977 180.771 223.066V216.264L180.934 201.519H170.41L161.889 207.017Z" fill="#EADCFF"/>
<path d="M186.779 161.313L186.243 163.479C186.057 164.178 185.894 164.9 185.731 165.623L185.498 166.717L185.265 167.789C185.125 168.511 184.962 169.233 184.823 169.979C184.264 172.883 183.76 175.794 183.309 178.714C182.875 181.634 182.494 184.561 182.168 187.496C181.517 193.389 181.028 199.283 180.725 205.176C180.422 211.023 180.259 216.893 180.306 222.74C179.374 223.16 178.35 223.392 177.326 223.532C176.255 223.672 175.16 223.719 174.043 223.695C172.948 223.672 171.854 223.579 170.76 223.439C169.665 223.299 168.571 223.136 167.5 222.903C168.571 223.183 169.65 223.416 170.736 223.602C171.831 223.765 172.925 223.905 174.043 223.952C175.16 224.021 176.255 224.021 177.372 223.905C178.49 223.788 179.584 223.556 180.632 223.113L180.771 223.066V222.903C180.865 217.01 181.121 211.116 181.47 205.223C181.827 199.337 182.316 193.459 182.937 187.589C183.286 184.654 183.612 181.742 184.031 178.807C184.427 175.895 184.869 172.984 185.382 170.072C185.894 167.183 186.453 164.272 187.105 161.406C187.733 158.518 188.478 155.653 189.293 152.834C188.339 155.606 187.524 158.471 186.779 161.313Z" fill="#E1CFFA"/>
<path fill-rule="evenodd" clip-rule="evenodd" d="M221.191 83.9062C225.382 91.7098 209.387 88.565 209.387 88.565C207.431 89.5667 197.279 87.7264 197.279 87.7264C197.279 87.7264 197.279 87.7342 197.279 87.7497C198.187 94.9244 193.414 107.41 203.449 111.603C203.519 110.275 203.822 108.668 204.777 107.27C206.08 105.337 208.246 104.172 211.203 103.8C214.393 103.427 216.884 104.009 218.607 105.593C219.585 106.502 220.144 107.55 220.493 108.552C223.287 104.498 223.194 99.1406 223.194 99.1406C223.194 99.1406 229.247 124.741 214.16 127.024C199.096 129.307 192.53 106.525 193.391 100.515C192.925 99.6298 192.32 98.7912 191.598 98.535C190.248 98.0225 189.247 98.4651 188.921 98.6748C188.874 98.7058 188.828 98.7369 188.781 98.7679C180.376 63.1276 213.974 71.8863 219.701 74.7049C225.429 77.5002 220.772 78.3854 220.772 78.3854C228.828 84.1391 221.191 83.9062 221.191 83.9062ZM204.87 112.116C206.546 112.628 208.549 112.931 210.947 113.024C214.905 113.141 217.582 111.789 219.399 109.903C219.189 108.901 218.7 107.596 217.629 106.641C216.232 105.36 214.137 104.871 211.389 105.22C208.851 105.523 207.012 106.478 205.964 108.039C205.079 109.344 204.87 110.881 204.87 112.116Z" fill="#392054"/>
<path d="M208.269 106.968C209.317 106.898 214.276 106.502 216.185 106.082C215.627 106.781 215.138 107.177 214.556 107.55C214.23 107.736 213.888 107.884 213.531 107.993C213.174 108.101 212.809 108.179 212.437 108.225C211.692 108.272 210.947 108.179 210.225 107.969C209.526 107.736 208.851 107.41 208.269 106.968Z" fill="white"/>
<path d="M274.347 130.029L295.907 140.395L290.645 151.367L269.085 141.001L274.347 130.029Z" fill="#31DAE7"/>
<path fill-rule="evenodd" clip-rule="evenodd" d="M274.79 130.891L294.953 140.581L290.203 150.505L270.04 140.814L274.79 130.891ZM293.975 140.931L275.116 131.846L270.971 140.465L289.854 149.55L293.975 140.931Z" fill="#ABF0F5"/>
<path d="M278.422 138.718C279.609 136.249 282.403 135.13 284.639 136.202C286.897 137.297 287.758 140.162 286.571 142.631C285.384 145.1 282.59 146.242 280.354 145.147C278.096 144.075 277.234 141.187 278.422 138.718Z" fill="#ABF0F5"/>
<path fill-rule="evenodd" clip-rule="evenodd" d="M281.146 141.723C281.1 142.002 281.1 142.235 281.286 142.468C281.309 142.445 281.332 142.421 281.356 142.375C281.542 142.002 281.728 141.622 281.915 141.233C281.961 141.14 281.938 141.117 281.868 141.047C281.713 140.892 281.565 140.729 281.426 140.558C280.937 139.976 280.983 139.347 281.356 138.741C281.821 138.019 282.45 137.763 283.288 137.972C283.451 138.019 283.521 137.972 283.568 137.832C283.614 137.739 283.661 137.646 283.707 137.53C283.87 137.623 284.033 137.693 284.196 137.786C284.134 137.926 284.064 138.073 283.987 138.228C284.988 138.927 284.941 139.859 284.685 140.465C284.39 140.356 284.08 140.24 283.754 140.115C283.824 139.766 283.8 139.416 283.568 139.067C283.474 139.3 283.381 139.463 283.288 139.649C283.172 139.906 283.055 140.162 282.939 140.418C282.869 140.511 282.892 140.558 282.962 140.628C283.195 140.861 283.405 141.117 283.521 141.443C283.754 142.095 283.568 142.678 283.125 143.167C282.729 143.609 282.194 143.726 281.589 143.563C281.557 143.547 281.519 143.532 281.472 143.516C281.472 143.516 281.457 143.516 281.426 143.516C281.363 143.641 281.301 143.765 281.239 143.889C281.076 143.819 280.913 143.726 280.75 143.656C280.774 143.563 280.82 143.47 280.867 143.377C280.937 143.283 280.89 143.237 280.82 143.19C280.448 142.934 280.215 142.585 280.145 142.142C280.122 141.909 280.145 141.676 280.215 141.42C280.541 141.513 280.843 141.629 281.146 141.723ZM282.45 140.139C282.66 139.673 282.869 139.23 283.079 138.811C282.776 138.671 282.38 138.834 282.194 139.16C282.008 139.463 282.101 139.836 282.45 140.139ZM281.821 142.748C282.147 142.748 282.45 142.585 282.543 142.352C282.66 142.072 282.59 141.746 282.38 141.56C282.194 141.956 282.008 142.328 281.821 142.748Z" fill="#31DAE7"/>
<g style="mix-blend-mode:multiply">
<path d="M279.237 132.382C279.214 132.428 277.7 131.66 277.7 131.66L286.245 148.035L283.777 142.515L279.237 132.382Z" fill="#31DAE7"/>
</g>
<path d="M287.502 121.2L297.328 143.027L286.245 148.035L276.419 126.209L287.502 121.2Z" fill="#31DAE7"/>
<path fill-rule="evenodd" clip-rule="evenodd" d="M287.293 122.155L296.49 142.561L286.455 147.08L277.258 126.674L287.293 122.155ZM295.535 142.189L286.944 123.11L278.236 127.047L286.827 146.125L295.535 142.189Z" fill="#ABF0F5"/>
<path d="M285.034 130.495C287.525 129.353 290.389 130.285 291.414 132.568C292.438 134.828 291.251 137.6 288.736 138.718C286.245 139.836 283.404 138.904 282.38 136.644C281.355 134.362 282.543 131.613 285.034 130.495Z" fill="#ABF0F5"/>
<path fill-rule="evenodd" clip-rule="evenodd" d="M285.197 134.525C284.964 134.711 284.825 134.897 284.825 135.2C284.848 135.177 284.895 135.177 284.918 135.177C285.306 134.991 285.694 134.812 286.082 134.641C286.175 134.618 286.198 134.571 286.175 134.478C286.16 134.261 286.152 134.043 286.152 133.826C286.152 133.057 286.594 132.591 287.269 132.382C288.084 132.125 288.736 132.358 289.249 133.057C289.342 133.174 289.411 133.197 289.551 133.127C289.644 133.057 289.737 133.034 289.831 132.987C289.924 133.15 289.994 133.313 290.063 133.476C289.908 133.554 289.761 133.624 289.621 133.686C289.924 134.851 289.272 135.55 288.713 135.852C288.558 135.573 288.395 135.286 288.224 134.991C288.503 134.758 288.69 134.478 288.76 134.082C288.527 134.175 288.34 134.245 288.154 134.338C287.898 134.455 287.642 134.571 287.386 134.664C287.293 134.711 287.269 134.758 287.269 134.874C287.316 135.2 287.316 135.526 287.176 135.852C286.943 136.505 286.431 136.831 285.779 136.924C285.174 136.994 284.708 136.714 284.359 136.225C284.328 136.194 284.305 136.163 284.289 136.132C284.274 136.116 284.258 136.101 284.243 136.085C284.118 136.132 283.994 136.186 283.87 136.248C283.8 136.085 283.707 135.922 283.637 135.736C283.73 135.689 283.823 135.643 283.917 135.62C284.01 135.596 284.033 135.526 283.986 135.433C283.893 135.014 283.917 134.595 284.149 134.199C284.289 134.012 284.452 133.849 284.685 133.709C284.848 133.989 285.011 134.245 285.197 134.525ZM287.2 134.152C287.665 133.942 288.108 133.733 288.55 133.546C288.387 133.243 287.991 133.127 287.642 133.243C287.293 133.36 287.13 133.709 287.2 134.152ZM285.034 135.736C285.29 135.969 285.616 136.039 285.849 135.922C286.129 135.783 286.292 135.48 286.245 135.2C285.849 135.387 285.453 135.55 285.034 135.736Z" fill="#31DAE7"/>
<path d="M289.9 141.35C289.574 141.49 289.435 141.886 289.574 142.212C289.737 142.538 290.11 142.701 290.459 142.538C290.785 142.398 290.925 142.002 290.785 141.676C290.622 141.35 290.25 141.187 289.9 141.35Z" fill="#ABF0F5"/>
<path d="M283.265 126.628C282.939 126.768 282.799 127.164 282.939 127.49C283.102 127.816 283.474 127.979 283.823 127.816C284.149 127.676 284.289 127.28 284.149 126.954C283.986 126.628 283.614 126.465 283.265 126.628Z" fill="#ABF0F5"/>
<path d="M297.235 124.368L298.958 148.245L286.827 149.13L285.104 125.254L297.235 124.368Z" fill="#31DAE7"/>
<path fill-rule="evenodd" clip-rule="evenodd" d="M296.722 125.184L298.329 147.523L287.362 148.315L285.756 125.976L296.722 125.184ZM297.537 146.847L296.047 125.952L286.501 126.651L288.014 147.523L297.537 146.847Z" fill="#ABF0F5"/>
<path d="M291.716 132.242C294.464 132.032 296.816 133.896 297.002 136.388C297.188 138.881 295.116 141.047 292.368 141.234C289.644 141.443 287.293 139.58 287.106 137.087C286.92 134.618 288.992 132.428 291.716 132.242Z" fill="#ABF0F5"/>
<path fill-rule="evenodd" clip-rule="evenodd" d="M290.483 136.085C290.227 136.179 289.994 136.318 289.901 136.575C289.947 136.598 289.97 136.598 290.017 136.598C290.436 136.567 290.855 136.536 291.274 136.505C291.367 136.505 291.414 136.481 291.437 136.388C291.484 136.171 291.546 135.961 291.624 135.759C291.88 135.037 292.462 134.758 293.183 134.781C294.022 134.827 294.557 135.27 294.79 136.085C294.837 136.248 294.906 136.272 295.046 136.248C295.163 136.248 295.256 136.248 295.372 136.225C295.395 136.411 295.395 136.598 295.419 136.784C295.248 136.8 295.085 136.807 294.93 136.807C294.813 138.019 293.975 138.438 293.346 138.531C293.284 138.221 293.222 137.895 293.16 137.553C293.509 137.436 293.789 137.25 293.975 136.877C293.742 136.901 293.533 136.901 293.346 136.924C293.067 136.947 292.788 136.971 292.508 136.971C292.392 136.994 292.345 137.017 292.322 137.11C292.252 137.436 292.112 137.763 291.903 138.019C291.437 138.555 290.855 138.671 290.203 138.531C289.621 138.392 289.272 137.972 289.109 137.39C289.093 137.343 289.086 137.304 289.086 137.273C289.07 137.258 289.062 137.242 289.062 137.227C288.923 137.227 288.783 137.235 288.643 137.25C288.62 137.064 288.62 136.877 288.597 136.691C288.713 136.691 288.806 136.668 288.899 136.668C289.016 136.668 289.039 136.621 289.039 136.528C289.086 136.085 289.272 135.713 289.621 135.433C289.807 135.27 290.017 135.177 290.273 135.13C290.343 135.456 290.413 135.759 290.483 136.085ZM292.508 136.411C292.997 136.388 293.486 136.342 293.975 136.318C293.929 135.969 293.603 135.736 293.23 135.713C292.858 135.713 292.578 135.969 292.508 136.411ZM289.924 137.157C290.087 137.483 290.366 137.646 290.622 137.623C290.925 137.576 291.181 137.343 291.228 137.087C290.809 137.11 290.366 137.134 289.924 137.157Z" fill="#31DAE7"/>
<path d="M291.46 129.307C291.088 129.307 290.785 129.027 290.785 128.655C290.785 128.282 291.088 128.002 291.46 128.002C291.81 128.002 292.112 128.282 292.112 128.655C292.112 129.027 291.81 129.307 291.46 129.307Z" fill="#ABF0F5"/>
<g style="mix-blend-mode:multiply">
<path d="M289.179 124.951L285.104 125.254L286.292 141.909L286.734 147.802L284.057 124.415L288.783 124.066L289.179 124.951Z" fill="#31DAE7"/>
</g>
<path d="M300.913 138.694C299.586 137.739 296.001 135.084 295.419 135.41C294.65 135.852 298.841 139.882 298.539 140.092C298.236 140.302 293.928 138.904 293.812 139.486C293.696 139.999 298.445 142.095 298.399 142.398C298.352 142.724 293.789 142.445 293.533 142.957C293.3 143.423 297.91 144.378 297.933 144.588C298.119 146.312 293.3 145.636 293.207 146.195C293.137 146.614 296.35 147.267 298.166 147.593L297.444 151.134H298.539L301.426 140.022C301.519 139.51 301.333 138.997 300.913 138.694Z" fill="#F2AAB8"/>
<path d="M187.524 90.7314C189.852 92.4785 192.32 92.9677 194.299 92.9677C195.533 92.9677 196.558 92.7813 197.303 92.6183C197.318 92.2611 197.334 91.9117 197.35 91.57C195.673 92.0359 191.319 92.8046 187.454 89.3804C187.47 89.8307 187.493 90.2811 187.524 90.7314Z" fill="#D9D5DF"/>
<path d="M197.396 89.3803C197.38 89.0231 197.357 88.6815 197.326 88.3553C196.255 88.565 190.853 89.357 187.617 85.397C187.57 85.8473 187.532 86.3054 187.5 86.7713C189.829 89.0775 192.879 89.5667 195.044 89.5667C196.092 89.5667 196.93 89.4502 197.396 89.3803Z" fill="#D9D5DF"/>
<path d="M205.126 68.7649C218.56 68.0195 224.311 74.1226 226.337 82.9511C201.587 88.4253 187.174 86.4453 187.174 86.4453C187.454 77.2906 193.018 69.4171 205.126 68.7649Z" fill="#31DAE7"/>
<path d="M187.221 86.7947C185.707 116.635 179.281 126.628 179.281 126.628C187.803 127.49 189.689 139.533 202.867 139.533C200.748 109.204 198.42 93.5966 199.305 91.966C200.213 90.3354 205.428 91.3371 208.269 90.0559C211.11 88.7514 215.58 91.2206 221.75 88.9378C223.729 103.939 223.869 140.209 223.869 140.209C230.132 136.388 229.48 128.841 231.04 124.788C227.454 112.908 228.968 91.57 226.383 83.3005C206.406 84.1624 188.897 84.9544 187.221 86.7947Z" fill="#31DAE7"/>
<path d="M187.198 85.2106C201.587 86.748 222.425 82.6249 226.081 81.8329C227.92 81.6233 227.92 84.4652 226.709 84.768C215.417 87.9361 197.745 89.4269 187.198 88.0525C185.498 87.2372 185.987 85.2106 187.198 85.2106Z" fill="#EADCFF"/>
</svg>
