<svg width="81" height="47" viewBox="0 0 81 47" fill="none" xmlns="http://www.w3.org/2000/svg">
<path d="M20.1673 13.9327L15.4219 13.8003C15.2826 13.7962 15.1731 13.6805 15.1768 13.5413L15.2916 9.43848C15.2956 9.29922 15.4113 9.18973 15.5506 9.19345L20.296 9.32589C20.4353 9.32992 20.5448 9.44562 20.5411 9.58488L20.4263 13.6877C20.4226 13.8269 20.3066 13.9364 20.1673 13.9327Z" fill="white"/>
<path d="M44.6752 33.8148H44.6643L19.4111 34.5986C19.2042 34.642 18.9974 34.6857 18.9431 34.8489L18.8668 35.4804L18.7688 36.2316C18.7033 36.5473 18.6382 36.8628 18.5076 37.1459C18.279 37.7445 17.9307 38.278 17.5061 38.7135C17.0815 39.1598 16.5701 39.5081 16.0257 39.7584C15.7537 39.8781 15.4271 39.987 15.2094 40.0304L14.6108 40.1501L9.85416 41.1951L0.340632 43.2632L0.438636 43.2198C0.406069 43.2198 0.395217 43.2306 0.384362 43.2306H0.362648C0.351793 43.2523 0.330078 43.2523 0.330078 43.2523L0.448565 38.6853C0.455389 38.4179 0.652954 38.194 0.9169 38.1536L11.8134 36.4822C11.8134 36.4822 11.8134 36.4822 11.8243 36.493L12.0963 36.4496L12.9781 36.319C13.2175 36.2319 13.4244 36.1339 13.5658 35.9924C13.6096 35.9599 13.6313 35.927 13.653 35.8836L13.6747 35.8727C13.8379 35.6224 13.9142 35.2958 13.925 34.915C13.925 34.8061 13.9359 34.6972 13.925 34.5775L13.8596 16.1493L13.8487 15.9316L20.6645 16.1214C20.9904 16.1304 21.2373 16.4182 21.1973 16.7417L19.6831 28.9391C19.6614 29.0045 19.6614 29.0805 19.6614 29.1351C19.6506 29.4943 19.8028 29.6686 20.1294 29.6686L36.2609 30.1258C36.4677 30.0498 36.4132 29.9297 36.2609 29.8209C36.25 29.81 36.2392 29.81 36.2283 29.7992C36.2066 29.7883 36.1629 29.7557 36.1411 29.7449C36.1411 29.7449 36.1411 29.7449 36.1411 29.734L23.754 20.8083L22.1864 19.6762C21.9904 19.5347 21.9578 19.2844 22.0776 19.0993L23.3402 17.2923L35.1831 0.181073C35.3136 -0.014948 35.5857 -0.0583733 35.7708 0.0830596L40.9629 4.09963C41.1589 4.24107 41.1698 4.51338 41.0283 4.68738L30.361 16.9331C29.8167 17.5317 29.5989 18.1741 30.3067 18.8815L30.459 19.023L44.838 32.6728C45.6221 33.4011 45.5675 33.7931 44.6752 33.8148Z" fill="white"/>
<path d="M44.5071 30.3795L32.7666 18.4102L45.3957 29.7508L44.5071 30.3795Z" fill="white"/>
<path d="M59.367 22.2541L59.002 21.8682L70.2636 11.4121L59.367 22.2541Z" fill="white"/>
<path d="M80.9578 23.4438C80.9252 23.3023 80.9032 23.1718 80.8055 23.052C80.7947 22.9978 80.7401 22.9215 80.7184 22.8889L80.6421 22.8126L79.9237 21.9091L78.4868 20.113C76.6255 17.9468 74.8185 15.7264 72.9247 13.5711L72.4784 13.0376C72.4675 13.005 72.4458 12.9942 72.4129 12.9616C72.0212 12.4936 71.6617 12.3739 71.1177 12.8093C71.0414 12.8748 70.9545 12.9508 70.8674 13.0379L61.615 21.8331L61.5824 21.8548L59.2314 24.0973L57.8273 25.4471C57.751 25.5125 57.6859 25.5777 57.6205 25.6431C57.5116 25.7411 57.4027 25.8283 57.3264 25.8934H57.3156C57.2284 25.948 57.1633 25.9806 57.087 25.9914L57.011 26.0023H57.0001C56.9455 26.0023 56.8913 25.9914 56.8587 25.9589C56.8478 25.9589 56.837 25.948 56.837 25.948C56.8261 25.9371 56.8261 25.9372 56.8153 25.9263C56.7936 25.9154 56.7719 25.8937 56.761 25.872L56.7502 25.8503C56.7284 25.8069 56.7176 25.7523 56.6959 25.698C56.6959 25.6872 56.6959 25.6763 56.6959 25.6763C56.6959 25.6546 56.685 25.6217 56.685 25.5892C56.6742 25.4694 56.685 25.328 56.7067 25.1754V25.1537C56.7067 25.1428 56.7067 25.1428 56.7067 25.132V25.1211C56.7176 25.1103 56.7176 25.1103 56.7176 25.0994V25.0886C56.7176 25.0886 56.7176 25.0885 56.7176 25.0777C56.7176 25.0777 56.7067 25.0668 56.7176 25.056V25.0451C56.7176 25.0343 56.7284 25.0234 56.7284 25.0017C56.7284 24.98 56.7393 24.958 56.7393 24.9363L56.7502 24.7948L56.7827 24.5337V24.512L57.2833 20.4845C57.3267 20.1688 57.0764 19.8751 56.7498 19.8642L49.9359 19.6791L50.0119 38.3249C50.0228 38.4447 50.0119 38.5644 50.0119 38.6732C50.0011 39.3044 49.7942 39.7945 49.2719 40.0231L48.1944 40.1971L37.0156 41.8952C36.7436 41.9389 36.5476 42.1672 36.5476 42.4287L36.417 47.0004L36.6782 46.935L45.9522 44.9431L50.698 43.8982L51.2966 43.7785C51.5143 43.7347 51.8626 43.615 52.1129 43.5065C52.6681 43.2562 53.1687 42.9079 53.5933 42.4615C54.0288 42.0152 54.3771 41.4929 54.6057 40.894C54.7254 40.6111 54.8017 40.2954 54.856 39.9796L54.9649 39.2179L55.2698 36.736V36.7143L55.7052 34.0038L55.7486 33.6989C55.7486 33.688 55.7486 33.6663 55.7595 33.6552C55.7595 33.5572 55.7812 33.47 55.8029 33.394C55.8901 33.0566 56.1078 32.8171 56.3798 32.654C56.4995 32.5777 56.6301 32.5125 56.7715 32.4579L56.9238 32.3817L57.1307 32.2728L59.9609 30.847C60.1569 30.749 60.3418 30.651 60.527 30.5529L60.7447 30.4441L60.799 30.4224C60.8861 30.3898 61.0276 30.3569 61.169 30.4766L61.2453 30.5529L61.8548 31.2496L62.7691 32.2291L62.9323 32.4034L63.4328 32.9368L63.8466 33.3614L64.1295 33.6446C64.2166 33.7206 64.3255 33.7861 64.4344 33.8515C64.7392 34.0364 65.1639 34.1127 65.5122 34.1127L66.666 34.0255L71.3029 33.7098L75.918 33.3832L77.235 33.2743C77.8882 33.198 78.5193 32.5451 78.6719 32.0225L78.8242 31.4673L79.4557 29.2357L80.7618 24.7728L80.9252 24.2176C80.9795 24.0536 81.0447 23.7052 80.9578 23.4438ZM74.9491 25.7622C74.9491 25.8059 74.9382 25.8385 74.9274 25.8711C74.8839 25.9691 74.8077 26.0342 74.7097 26.0997C74.6988 26.0997 74.6879 26.1105 74.6771 26.1214C74.6445 26.1431 74.6008 26.1648 74.5574 26.1977H74.5465C74.0239 26.5351 73.447 26.8726 72.903 27.2426C72.0975 27.7869 71.3137 28.3638 70.5411 28.9625C70.4974 28.995 70.4431 29.0388 70.3888 29.0713C70.0188 29.2999 69.5725 29.2782 69.0173 28.919C69.0173 28.919 69.0173 28.9299 69.0281 28.9407C68.6364 28.6904 68.2444 28.4836 67.8526 28.2875C67.2974 27.9392 66.6554 27.6564 66.0674 27.3406L65.8388 27.2209C65.7408 27.1883 65.621 27.1012 65.621 27.1012C65.5993 27.0903 65.5776 27.0795 65.5667 27.0686C65.4145 26.9706 65.3599 26.8726 65.3382 26.8075C65.3273 26.764 65.3273 26.7312 65.3273 26.7312C65.3273 26.6769 65.3382 26.6331 65.349 26.5897C65.3707 26.5463 65.3816 26.5354 65.3816 26.5354L65.5559 26.2851V26.2743C65.6322 26.1763 65.7082 26.0783 65.7736 25.9914C65.8391 25.8934 65.9151 25.8063 65.9805 25.7083C66.0677 25.5885 66.1437 25.4688 66.2417 25.3599C66.5248 24.9462 66.8294 24.5545 67.156 24.1627C67.2974 23.9667 67.4609 23.7818 67.6132 23.5967C68.1575 22.9764 68.7236 22.3774 69.3113 21.8114C70.1385 21.1582 70.8134 21.0714 71.3577 21.4631C71.3686 21.4631 71.3795 21.474 71.3903 21.4848L71.4446 21.5391L72.5875 22.7254C72.7072 22.8452 72.827 22.9649 72.9467 23.0955L73.023 23.1715C73.3605 23.5523 73.6871 23.9444 73.9916 24.3361C74.0133 24.3687 74.0351 24.4015 74.0571 24.4233L74.8517 25.5008L74.8626 25.5116C74.9168 25.5988 74.9389 25.6859 74.9497 25.7511V25.7622H74.9491Z" fill="white"/>
<path d="M20.2222 36.7022L21.2193 36.6798L21.9156 38.4611C22.0022 38.698 22.0785 38.9558 22.1656 39.2027L22.1904 39.2021C22.2655 38.9514 22.3285 38.6906 22.4038 38.4499L22.9987 36.6395L23.9959 36.6172L24.0874 40.6601L23.2549 40.679L23.2214 39.1952C23.2124 38.801 23.2729 38.2111 23.307 37.8187L23.2822 37.8194L22.9724 38.7836L22.4358 40.3453L21.9284 40.3568L21.3211 38.8209L20.9765 37.8712L20.952 37.8718C21.0038 38.2623 21.0906 38.8485 21.0999 39.2427L21.1334 40.7265L20.3137 40.7451L20.2222 36.7022Z" fill="white" stroke="white" stroke-width="0.167" stroke-miterlimit="10"/>
<path d="M27.3042 36.5416L28.7601 36.5087C29.6177 36.4892 30.3273 36.7711 30.349 37.7323C30.3698 38.6613 29.676 39.0772 28.8184 39.0964L28.2766 39.1085L28.3094 40.5635L27.3954 40.5843L27.3042 36.5416ZM28.7278 38.3722C29.2089 38.3613 29.4623 38.1501 29.4536 37.7525C29.4446 37.3524 29.1831 37.2246 28.7021 37.2355L28.2347 37.246L28.2604 38.3827L28.7278 38.3722ZM28.6463 38.8591L29.2653 38.2599L30.6074 40.5117L29.5845 40.5346L28.6463 38.8591Z" fill="white" stroke="white" stroke-width="0.167" stroke-miterlimit="10"/>
<path d="M33.4624 36.4031L34.3761 36.3823L34.4133 38.0342L34.436 38.0339L35.6041 36.3547L36.6083 36.332L35.4217 37.9734L36.9247 40.37L35.9226 40.3926L34.9012 38.7066L34.4431 39.3415L34.4676 40.4252L33.5539 40.446L33.4624 36.4031Z" fill="white" stroke="white" stroke-width="0.167" stroke-miterlimit="10"/>
<path d="M39.4492 39.761L41.1756 36.995L39.5578 37.0316L39.5404 36.2652L42.2853 36.2031L42.2977 36.7543L40.5714 39.5197L42.3737 39.479L42.3914 40.2457L39.4619 40.3121L39.4492 39.761Z" fill="white" stroke="white" stroke-width="0.167" stroke-miterlimit="10"/>
</svg>
