<svg width="81" height="47" viewBox="0 0 81 47" fill="none" xmlns="http://www.w3.org/2000/svg">
<path d="M20.1676 13.9329L15.4221 13.8005C15.2829 13.7965 15.1734 13.6808 15.1771 13.5415L15.2919 9.43872C15.2959 9.29946 15.4116 9.18997 15.5508 9.1937L20.2963 9.32613C20.4355 9.33017 20.545 9.44586 20.5413 9.58512L20.4265 13.6879C20.4228 13.8272 20.3068 13.9367 20.1676 13.9329Z" fill="#030405"/>
<path d="M44.6752 33.8148H44.6643L19.4111 34.5986C19.2042 34.642 18.9974 34.6857 18.9431 34.8489L18.8668 35.4804L18.7688 36.2316C18.7033 36.5473 18.6382 36.8628 18.5076 37.1459C18.279 37.7445 17.9307 38.278 17.5061 38.7135C17.0815 39.1598 16.5701 39.5081 16.0257 39.7584C15.7537 39.8781 15.4271 39.987 15.2094 40.0304L14.6108 40.1501L9.85416 41.1951L0.340632 43.2632L0.438636 43.2198C0.406069 43.2198 0.395217 43.2306 0.384362 43.2306H0.362648C0.351793 43.2523 0.330078 43.2523 0.330078 43.2523L0.448565 38.6853C0.455389 38.4179 0.652954 38.194 0.9169 38.1536L11.8134 36.4822C11.8134 36.4822 11.8134 36.4822 11.8243 36.493L12.0963 36.4496L12.9781 36.319C13.2175 36.2319 13.4244 36.1339 13.5658 35.9924C13.6096 35.9599 13.6313 35.927 13.653 35.8836L13.6747 35.8727C13.8379 35.6224 13.9142 35.2958 13.925 34.9149C13.925 34.8061 13.9359 34.6972 13.925 34.5775L13.8596 16.1493L13.8487 15.9316L20.6645 16.1214C20.9905 16.1304 21.2373 16.4182 21.1973 16.7417L19.6831 28.9391C19.6614 29.0045 19.6614 29.0805 19.6614 29.1351C19.6506 29.4943 19.8028 29.6686 20.1294 29.6686L36.2609 30.1258C36.4677 30.0498 36.4132 29.9297 36.2609 29.8209C36.25 29.81 36.2392 29.81 36.2283 29.7992C36.2066 29.7883 36.1629 29.7557 36.1411 29.7449C36.1411 29.7449 36.1411 29.7449 36.1411 29.734L23.754 20.8083L22.1864 19.6762C21.9904 19.5347 21.9578 19.2844 22.0776 19.0993L23.3402 17.2923L35.1831 0.181073C35.3136 -0.014948 35.5856 -0.0583733 35.7708 0.0830596L40.9629 4.09963C41.1589 4.24107 41.1698 4.51338 41.0283 4.68738L30.361 16.9331C29.8167 17.5317 29.5989 18.1741 30.3067 18.8815L30.459 19.023L44.838 32.6728C45.6221 33.4011 45.5675 33.7931 44.6752 33.8148Z" fill="#030405"/>
<path d="M44.5071 30.3792L32.7667 18.4098L45.3957 29.7505L44.5071 30.3792Z" fill="#030405"/>
<path d="M59.367 22.2542L59.0019 21.8683L70.2635 11.4122L59.367 22.2542Z" fill="#030405"/>
<path d="M80.9577 23.4434C80.9251 23.302 80.9031 23.1714 80.8054 23.0517C80.7946 22.9974 80.74 22.9211 80.7183 22.8885L80.642 22.8122L79.9236 21.9087L78.4867 20.1126C76.6254 17.9464 74.8184 15.726 72.9246 13.5707L72.4782 13.0372C72.4674 13.0047 72.4457 12.9938 72.4128 12.9612C72.0211 12.4932 71.6616 12.3735 71.1176 12.809C71.0413 12.8744 70.9544 12.9504 70.8673 13.0375L61.6149 21.8327L61.5823 21.8545L59.2313 24.0969L57.8272 25.4467C57.7509 25.5122 57.6858 25.5773 57.6203 25.6427C57.5115 25.7408 57.4026 25.8279 57.3263 25.893H57.3155C57.2283 25.9476 57.1632 25.9802 57.0869 25.9911L57.0109 26.0019H57C56.9454 26.0019 56.8911 25.9911 56.8586 25.9585C56.8477 25.9585 56.8369 25.9476 56.8369 25.9476C56.826 25.9368 56.826 25.9368 56.8152 25.9259C56.7934 25.9151 56.7717 25.8934 56.7609 25.8716L56.75 25.8499C56.7283 25.8065 56.7175 25.7519 56.6957 25.6976C56.6957 25.6868 56.6957 25.6759 56.6957 25.6759C56.6957 25.6542 56.6849 25.6214 56.6849 25.5888C56.674 25.4691 56.6849 25.3276 56.7066 25.175V25.1533C56.7066 25.1425 56.7066 25.1425 56.7066 25.1316V25.1208C56.7175 25.1099 56.7175 25.1099 56.7175 25.099V25.0882C56.7175 25.0882 56.7175 25.0882 56.7175 25.0773C56.7175 25.0773 56.7066 25.0665 56.7175 25.0556V25.0448C56.7175 25.0339 56.7283 25.0231 56.7283 25.0013C56.7283 24.9796 56.7392 24.9576 56.7392 24.9359L56.75 24.7945L56.7826 24.5333V24.5116L57.2832 20.4842C57.3266 20.1684 57.0763 19.8747 56.7497 19.8639L49.9358 19.6787L50.0118 38.3246C50.0227 38.4443 50.0118 38.564 50.0118 38.6729C50.0009 39.304 49.7941 39.7941 49.2718 40.0227L48.1943 40.1967L37.0155 41.8948C36.7435 41.9385 36.5475 42.1668 36.5475 42.4283L36.4169 47.0001L36.678 46.9346L45.9521 44.9428L50.6979 43.8978L51.2965 43.7781C51.5142 43.7344 51.8625 43.6147 52.1128 43.5061C52.668 43.2558 53.1686 42.9075 53.5932 42.4612C54.0287 42.0149 54.377 41.4925 54.6056 40.8936C54.7253 40.6108 54.8016 40.295 54.8559 39.9793L54.9647 39.2175L55.2696 36.7356V36.7139L55.7051 34.0034L55.7485 33.6985C55.7485 33.6877 55.7485 33.666 55.7594 33.6548C55.7594 33.5568 55.7811 33.4696 55.8028 33.3936C55.89 33.0562 56.1077 32.8167 56.3797 32.6536C56.4994 32.5773 56.63 32.5122 56.7714 32.4576L56.9237 32.3813L57.1306 32.2724L59.9608 30.8466C60.1568 30.7486 60.3417 30.6506 60.5269 30.5526L60.7446 30.4437L60.7988 30.422C60.886 30.3894 61.0274 30.3566 61.1689 30.4763L61.2452 30.5526L61.8546 31.2492L62.769 32.2287L62.9321 32.403L63.4327 32.9365L63.8465 33.3611L64.1294 33.6443C64.2165 33.7203 64.3254 33.7857 64.4342 33.8511C64.7391 34.036 65.1637 34.1123 65.5121 34.1123L66.6658 34.0251L71.3027 33.7094L75.9179 33.3828L77.2348 33.2739C77.888 33.1976 78.5192 32.5447 78.6718 32.0221L78.8241 31.4669L79.4556 29.2353L80.7617 24.7724L80.9251 24.2173C80.9794 24.0532 81.0445 23.7049 80.9577 23.4434ZM74.949 25.7619C74.949 25.8056 74.9381 25.8382 74.9273 25.8707C74.8838 25.9687 74.8075 26.0339 74.7095 26.0993C74.6987 26.0993 74.6878 26.1102 74.6769 26.121C74.6444 26.1427 74.6007 26.1644 74.5572 26.1973H74.5464C74.0238 26.5348 73.4469 26.8722 72.9028 27.2422C72.0974 27.7866 71.3136 28.3635 70.541 28.9621C70.4972 28.9947 70.443 29.0384 70.3887 29.071C70.0187 29.2995 69.5723 29.2778 69.0172 28.9187C69.0172 28.9187 69.0172 28.9295 69.028 28.9404C68.6363 28.6901 68.2442 28.4832 67.8525 28.2872C67.2973 27.9389 66.6553 27.656 66.0672 27.3403L65.8386 27.2205C65.7406 27.188 65.6209 27.1008 65.6209 27.1008C65.5992 27.09 65.5775 27.0791 65.5666 27.0682C65.4143 26.9702 65.3598 26.8722 65.338 26.8071C65.3272 26.7637 65.3272 26.7308 65.3272 26.7308C65.3272 26.6765 65.3381 26.6328 65.3489 26.5894C65.3706 26.5459 65.3815 26.5351 65.3815 26.5351L65.5558 26.2848V26.2739C65.6321 26.1759 65.7081 26.0779 65.7735 25.9911C65.8389 25.8931 65.9149 25.8059 65.9804 25.7079C66.0675 25.5882 66.1435 25.4684 66.2415 25.3596C66.5247 24.9458 66.8293 24.5541 67.1559 24.1624C67.2973 23.9663 67.4608 23.7815 67.6131 23.5963C68.1574 22.976 68.7234 22.3771 69.3112 21.811C70.1384 21.1578 70.8133 21.071 71.3576 21.4627C71.3685 21.4627 71.3793 21.4736 71.3902 21.4844L71.4445 21.5387L72.5874 22.7251C72.7071 22.8448 72.8269 22.9645 72.9466 23.0951L73.0229 23.1711C73.3603 23.552 73.6869 23.944 73.9915 24.3357C74.0132 24.3683 74.0349 24.4012 74.057 24.4229L74.8516 25.5004L74.8624 25.5112C74.9167 25.5984 74.9387 25.6856 74.9496 25.7507V25.7619H74.949Z" fill="#030405"/>
<path d="M20.2222 36.7016L21.2194 36.6792L21.9157 38.4605C22.0022 38.6974 22.0785 38.9552 22.1657 39.2021L22.1905 39.2014C22.2656 38.9508 22.3285 38.69 22.4039 38.4493L22.9988 36.6389L23.9959 36.6166L24.0874 40.6595L23.255 40.6784L23.2215 39.1946C23.2125 38.8004 23.273 38.2105 23.3071 37.8181L23.2823 37.8187L22.9724 38.783L22.4358 40.3447L21.9284 40.3562L21.3211 38.8203L20.9765 37.8705L20.952 37.8712C21.0038 38.2617 21.0907 38.8479 21.1 39.2421L21.1335 40.7259L20.3137 40.7445L20.2222 36.7016Z" fill="#030405" stroke="#030405" stroke-width="0.167" stroke-miterlimit="10"/>
<path d="M27.3041 36.5418L28.76 36.5089C29.6176 36.4893 30.3273 36.7713 30.349 37.7325C30.3698 38.6614 29.6759 39.0773 28.8183 39.0965L28.2765 39.1086L28.3094 40.5636L27.3953 40.5844L27.3041 36.5418ZM28.7278 38.3723C29.2088 38.3615 29.4622 38.1502 29.4535 37.7526C29.4445 37.3525 29.1831 37.2247 28.702 37.2356L28.2346 37.2461L28.2604 38.3829L28.7278 38.3723ZM28.6462 38.8593L29.2653 38.26L30.6073 40.5118L29.5844 40.5348L28.6462 38.8593Z" fill="#030405" stroke="#030405" stroke-width="0.167" stroke-miterlimit="10"/>
<path d="M33.4623 36.4024L34.3761 36.3817L34.4133 38.0336L34.4359 38.0333L35.604 36.3541L36.6083 36.3314L35.4216 37.9728L36.9247 40.3694L35.9225 40.392L34.9012 38.706L34.4431 39.3409L34.4676 40.4246L33.5538 40.4454L33.4623 36.4024Z" fill="#030405" stroke="#030405" stroke-width="0.167" stroke-miterlimit="10"/>
<path d="M39.4491 39.7606L41.1754 36.9946L39.5577 37.0312L39.5403 36.2648L42.2852 36.2028L42.2976 36.7539L40.5713 39.5193L42.3736 39.4787L42.3913 40.2454L39.4618 40.3118L39.4491 39.7606Z" fill="#030405" stroke="#030405" stroke-width="0.167" stroke-miterlimit="10"/>
</svg>
